<svg width="85mm" height="85mm" viewBox="0 0 85 85" xmlns="http://www.w3.org/2000/svg">
  <path style="display:inline;fill:#e05c5c;fill-opacity:1;stroke:#000;stroke-width:1.5" d="m22.92 9.84 17.064-.498 9.84 27.902 26.781-5.356-5.854 13.452-34.504-1.868Z"/>
  <path style="display:inline;fill:#6c5ce0;stroke:#000;stroke-width:1.5;fill-opacity:1" d="M25.328 14.802c2.408 6.125 6.352 18.456 14.324 24.227 7.973 5.772 19.972 4.983 26.096 5.19 6.124.208 6.373 1.412.519 1.993-5.855.582-17.812.54-25.577 5.336-7.764 4.796-11.335 14.428-13.64 19.12-2.303 4.692-3.341 4.443-2.054-.332 1.286-4.775 4.899-14.076 6.186-20.553s.25-10.13-3.135-10.463c-3.384-.332-9.114 2.657-12.29 3.84-3.176 1.184-3.799.561-1.142-1.307 2.658-1.869 8.595-4.983 8.16-7.121-.437-2.138-7.246-3.3-10.61-4.318-3.363-1.017-3.28-1.89-.062-1.952 3.218-.062 9.571.685 11.605-2.45 2.035-3.134-.249-10.15-.955-13.701-.705-3.55.167-3.633 2.575 2.491z"/>
</svg>
